<mxfile host="app.diagrams.net" modified="2024-05-14T12:32:14.368Z" agent="Mozilla/5.0 (Windows NT 10.0; Win64; x64) AppleWebKit/537.36 (KHTML, like Gecko) Chrome/124.0.0.0 Safari/537.36" etag="aDt3g50xn91NB9DPj6vE" version="24.3.1" type="github">
  <diagram name="Page-1" id="929967ad-93f9-6ef4-fab6-5d389245f69c">
    <mxGraphModel dx="1185" dy="627" grid="1" gridSize="10" guides="1" tooltips="1" connect="1" arrows="1" fold="1" page="1" pageScale="1.5" pageWidth="1169" pageHeight="826" background="none" math="0" shadow="0">
      <root>
        <mxCell id="0" style=";html=1;" />
        <mxCell id="1" style=";html=1;" parent="0" />
        <mxCell id="9Tvp2DWcbv-5yQA1MH0v-11" value="has" style="edgeStyle=orthogonalEdgeStyle;rounded=0;orthogonalLoop=1;jettySize=auto;html=1;strokeColor=default;align=center;verticalAlign=middle;fontFamily=Helvetica;fontSize=11;fontColor=default;labelBackgroundColor=default;endArrow=none;endFill=0;" edge="1" parent="1" source="9Tvp2DWcbv-5yQA1MH0v-2" target="9Tvp2DWcbv-5yQA1MH0v-5">
          <mxGeometry y="-10" relative="1" as="geometry">
            <mxPoint as="offset" />
          </mxGeometry>
        </mxCell>
        <mxCell id="9Tvp2DWcbv-5yQA1MH0v-29" value="1" style="edgeLabel;html=1;align=center;verticalAlign=middle;resizable=0;points=[];fontFamily=Helvetica;fontSize=11;fontColor=default;labelBackgroundColor=default;" vertex="1" connectable="0" parent="9Tvp2DWcbv-5yQA1MH0v-11">
          <mxGeometry x="0.3429" y="-2" relative="1" as="geometry">
            <mxPoint x="-8" y="-51" as="offset" />
          </mxGeometry>
        </mxCell>
        <mxCell id="9Tvp2DWcbv-5yQA1MH0v-30" value="n" style="edgeLabel;html=1;align=center;verticalAlign=middle;resizable=0;points=[];fontFamily=Helvetica;fontSize=11;fontColor=default;labelBackgroundColor=default;" vertex="1" connectable="0" parent="9Tvp2DWcbv-5yQA1MH0v-11">
          <mxGeometry x="0.5714" y="1" relative="1" as="geometry">
            <mxPoint x="-11" y="9" as="offset" />
          </mxGeometry>
        </mxCell>
        <mxCell id="9Tvp2DWcbv-5yQA1MH0v-16" value="has" style="edgeStyle=orthogonalEdgeStyle;rounded=0;orthogonalLoop=1;jettySize=auto;html=1;strokeColor=default;align=center;verticalAlign=middle;fontFamily=Helvetica;fontSize=11;fontColor=default;labelBackgroundColor=default;endArrow=none;endFill=0;" edge="1" parent="1" source="9Tvp2DWcbv-5yQA1MH0v-2" target="9Tvp2DWcbv-5yQA1MH0v-7">
          <mxGeometry y="10" relative="1" as="geometry">
            <mxPoint as="offset" />
          </mxGeometry>
        </mxCell>
        <mxCell id="9Tvp2DWcbv-5yQA1MH0v-31" value="1" style="edgeLabel;html=1;align=center;verticalAlign=middle;resizable=0;points=[];fontFamily=Helvetica;fontSize=11;fontColor=default;labelBackgroundColor=default;" vertex="1" connectable="0" parent="9Tvp2DWcbv-5yQA1MH0v-16">
          <mxGeometry x="0.5881" y="1" relative="1" as="geometry">
            <mxPoint x="85" y="-11" as="offset" />
          </mxGeometry>
        </mxCell>
        <mxCell id="9Tvp2DWcbv-5yQA1MH0v-32" value="n" style="edgeLabel;html=1;align=center;verticalAlign=middle;resizable=0;points=[];fontFamily=Helvetica;fontSize=11;fontColor=default;labelBackgroundColor=default;" vertex="1" connectable="0" parent="9Tvp2DWcbv-5yQA1MH0v-16">
          <mxGeometry x="-0.0214" y="-2" relative="1" as="geometry">
            <mxPoint x="-51" y="-8" as="offset" />
          </mxGeometry>
        </mxCell>
        <mxCell id="9Tvp2DWcbv-5yQA1MH0v-2" value="Issuer" style="html=1;whiteSpace=wrap;fontFamily=Helvetica;fontSize=11;fontColor=default;labelBackgroundColor=default;" vertex="1" parent="1">
          <mxGeometry x="400" y="40" width="120" height="60" as="geometry" />
        </mxCell>
        <mxCell id="9Tvp2DWcbv-5yQA1MH0v-19" value="buys on" style="edgeStyle=orthogonalEdgeStyle;rounded=0;orthogonalLoop=1;jettySize=auto;html=1;strokeColor=default;align=center;verticalAlign=middle;fontFamily=Helvetica;fontSize=11;fontColor=default;labelBackgroundColor=default;endArrow=none;endFill=0;" edge="1" parent="1" source="9Tvp2DWcbv-5yQA1MH0v-3" target="9Tvp2DWcbv-5yQA1MH0v-4">
          <mxGeometry y="-20" relative="1" as="geometry">
            <mxPoint as="offset" />
          </mxGeometry>
        </mxCell>
        <mxCell id="9Tvp2DWcbv-5yQA1MH0v-25" value="n" style="edgeLabel;html=1;align=center;verticalAlign=middle;resizable=0;points=[];fontFamily=Helvetica;fontSize=11;fontColor=default;labelBackgroundColor=default;" vertex="1" connectable="0" parent="9Tvp2DWcbv-5yQA1MH0v-19">
          <mxGeometry x="0.8179" y="-2" relative="1" as="geometry">
            <mxPoint x="8" y="3" as="offset" />
          </mxGeometry>
        </mxCell>
        <mxCell id="9Tvp2DWcbv-5yQA1MH0v-26" value="m" style="edgeLabel;html=1;align=center;verticalAlign=middle;resizable=0;points=[];fontFamily=Helvetica;fontSize=11;fontColor=default;labelBackgroundColor=default;" vertex="1" connectable="0" parent="9Tvp2DWcbv-5yQA1MH0v-19">
          <mxGeometry x="-0.6679" y="-1" relative="1" as="geometry">
            <mxPoint x="9" as="offset" />
          </mxGeometry>
        </mxCell>
        <mxCell id="9Tvp2DWcbv-5yQA1MH0v-20" value="gets" style="edgeStyle=orthogonalEdgeStyle;rounded=0;orthogonalLoop=1;jettySize=auto;html=1;strokeColor=default;align=center;verticalAlign=middle;fontFamily=Helvetica;fontSize=11;fontColor=default;labelBackgroundColor=default;endArrow=none;endFill=0;" edge="1" parent="1" source="9Tvp2DWcbv-5yQA1MH0v-3" target="9Tvp2DWcbv-5yQA1MH0v-5">
          <mxGeometry x="-0.0002" y="10" relative="1" as="geometry">
            <mxPoint as="offset" />
          </mxGeometry>
        </mxCell>
        <mxCell id="9Tvp2DWcbv-5yQA1MH0v-27" value="1" style="edgeLabel;html=1;align=center;verticalAlign=middle;resizable=0;points=[];fontFamily=Helvetica;fontSize=11;fontColor=default;labelBackgroundColor=default;" vertex="1" connectable="0" parent="9Tvp2DWcbv-5yQA1MH0v-20">
          <mxGeometry x="-0.8235" y="-2" relative="1" as="geometry">
            <mxPoint x="-15" y="-12" as="offset" />
          </mxGeometry>
        </mxCell>
        <mxCell id="9Tvp2DWcbv-5yQA1MH0v-28" value="n" style="edgeLabel;html=1;align=center;verticalAlign=middle;resizable=0;points=[];fontFamily=Helvetica;fontSize=11;fontColor=default;labelBackgroundColor=default;" vertex="1" connectable="0" parent="9Tvp2DWcbv-5yQA1MH0v-20">
          <mxGeometry x="0.8602" y="2" relative="1" as="geometry">
            <mxPoint x="-8" y="-9" as="offset" />
          </mxGeometry>
        </mxCell>
        <mxCell id="9Tvp2DWcbv-5yQA1MH0v-3" value="Investor" style="html=1;whiteSpace=wrap;fontFamily=Helvetica;fontSize=11;fontColor=default;labelBackgroundColor=default;" vertex="1" parent="1">
          <mxGeometry x="160" y="320" width="120" height="60" as="geometry" />
        </mxCell>
        <mxCell id="9Tvp2DWcbv-5yQA1MH0v-4" value="White Label Software&lt;div&gt;(SmarteFunding)&lt;/div&gt;" style="html=1;whiteSpace=wrap;" vertex="1" parent="1">
          <mxGeometry x="160" y="180" width="120" height="60" as="geometry" />
        </mxCell>
        <mxCell id="9Tvp2DWcbv-5yQA1MH0v-5" value="Security Token" style="html=1;whiteSpace=wrap;" vertex="1" parent="1">
          <mxGeometry x="400" y="190" width="120" height="60" as="geometry" />
        </mxCell>
        <mxCell id="9Tvp2DWcbv-5yQA1MH0v-18" value="posted" style="edgeStyle=orthogonalEdgeStyle;rounded=0;orthogonalLoop=1;jettySize=auto;html=1;strokeColor=default;align=center;verticalAlign=middle;fontFamily=Helvetica;fontSize=11;fontColor=default;labelBackgroundColor=default;endArrow=none;endFill=0;" edge="1" parent="1" source="9Tvp2DWcbv-5yQA1MH0v-7" target="9Tvp2DWcbv-5yQA1MH0v-4">
          <mxGeometry y="20" relative="1" as="geometry">
            <mxPoint as="offset" />
          </mxGeometry>
        </mxCell>
        <mxCell id="9Tvp2DWcbv-5yQA1MH0v-23" value="1" style="edgeLabel;html=1;align=center;verticalAlign=middle;resizable=0;points=[];fontFamily=Helvetica;fontSize=11;fontColor=default;labelBackgroundColor=default;" vertex="1" connectable="0" parent="9Tvp2DWcbv-5yQA1MH0v-18">
          <mxGeometry x="-0.6179" y="-2" relative="1" as="geometry">
            <mxPoint x="12" y="55" as="offset" />
          </mxGeometry>
        </mxCell>
        <mxCell id="9Tvp2DWcbv-5yQA1MH0v-24" value="n" style="edgeLabel;html=1;align=center;verticalAlign=middle;resizable=0;points=[];fontFamily=Helvetica;fontSize=11;fontColor=default;labelBackgroundColor=default;" vertex="1" connectable="0" parent="9Tvp2DWcbv-5yQA1MH0v-18">
          <mxGeometry x="-0.5179" y="1" relative="1" as="geometry">
            <mxPoint x="9" y="-9" as="offset" />
          </mxGeometry>
        </mxCell>
        <mxCell id="9Tvp2DWcbv-5yQA1MH0v-7" value="Investment Projects" style="html=1;whiteSpace=wrap;fontFamily=Helvetica;fontSize=11;fontColor=default;labelBackgroundColor=default;" vertex="1" parent="1">
          <mxGeometry x="160" y="40" width="120" height="60" as="geometry" />
        </mxCell>
      </root>
    </mxGraphModel>
  </diagram>
</mxfile>
